<svg width="349" height="149" viewBox="0 0 349 149" fill="none" xmlns="http://www.w3.org/2000/svg">
<path fill-rule="evenodd" clip-rule="evenodd" d="M89.4189 115.816C86.6238 118.495 87.4241 118.182 80.9211 116.222C75.2183 114.366 77.9232 113.751 72.8177 116.732C68.2194 119.516 60.7134 122.288 57.2196 124.445C58.5269 127.426 69.7184 137.204 72.4232 141.217C71.4202 141.728 70.62 142.145 69.5268 142.656C67.825 143.479 68.2307 143.479 66.2246 142.25C61.8292 139.675 47.7188 131.439 44.9237 130.21C41.2271 131.857 31.4219 137.007 28.0295 136.798C26.4291 136.694 23.8257 136.288 24.3329 134.223C25.6289 129.178 34.431 126.405 40.1338 123.83C42.433 122.798 41.8357 122.903 42.3315 120.328C42.9402 117.555 46.7382 97.3848 47.6286 96.3525C48.023 96.0394 51.1224 94.7055 51.731 94.3923C52.0353 96.2481 52.2269 98.3012 52.3283 100.261L53.3313 111.686C53.3313 113.542 53.6357 115.7 53.9287 117.451C56.5321 116.117 59.1243 114.98 61.8292 113.647C75.2296 107.058 72.829 111.489 75.9283 104.077C77.7316 99.9598 77.7316 97.4892 81.6311 98.104C80.9211 106.351 83.1188 111.489 89.4189 115.816ZM-24.3775 36.0612C-20.771 37.1978 -21.5825 37.3022 -16.5784 32.5583C-12.183 28.4406 -14.8766 29.0554 -8.98221 29.5773C-3.78659 29.9833 4.2153 29.2642 8.31769 29.6817C8.41913 32.8714 2.3219 46.6626 1.5217 51.4994C2.62619 51.4994 3.51654 51.4994 4.72247 51.4994C6.62717 51.4994 6.22144 51.7081 7.61896 49.7479C10.5154 45.4215 19.7233 31.7347 21.8195 29.4729C25.9219 29.3686 36.8203 29.5773 39.8182 28.0347C41.2158 27.2111 43.4135 25.5641 42.1174 23.917C38.8152 20.0082 29.7201 21.3421 23.5214 21.5509C21.0194 21.5509 21.628 21.4465 20.0163 19.3935C18.3145 17.1317 6.51443 0.55675 5.31979 0.0463958C4.82391 -0.0579948 1.42026 0.0463958 0.822937 0.0463958C1.22867 1.90223 1.92746 3.74646 2.62622 5.6023L6.52573 16.4009C7.22449 18.048 7.92325 20.2054 8.43042 21.8524C5.53394 21.748 2.62619 21.8524 -0.371704 21.8524C-15.1696 21.8524 -11.0672 24.8334 -17.0743 19.4862C-20.3652 16.5053 -21.3683 14.3363 -24.6705 16.6097C-20.6695 23.7199 -20.4779 29.3686 -24.3775 36.0612ZM-25.9778 25.5641C-24.4789 25.3553 -23.9717 27.7215 -25.6848 28.0347L-28.0854 28.3478C-29.5844 28.661 -30.193 26.1904 -28.4911 25.8773L-25.9778 25.5641ZM-238.356 190.223C-239.156 191.87 -241.354 190.629 -240.655 189.191L-240.057 187.857C-239.257 186.314 -237.06 187.544 -237.86 188.993L-238.356 190.223ZM-234.558 182.092C-235.358 183.635 -237.555 182.51 -236.755 180.955L-235.651 178.693C-234.952 177.151 -232.754 178.38 -233.453 179.819L-234.558 182.092ZM-230.061 173.033C-230.759 174.471 -233.059 173.439 -232.258 171.897L-231.064 169.635C-230.365 168.196 -228.167 169.229 -228.866 170.876L-230.061 173.033ZM-225.26 164.183C-226.161 165.726 -228.257 164.288 -227.457 162.942L-226.161 160.68C-225.26 159.138 -223.265 160.576 -224.065 161.91L-225.26 164.183ZM-220.256 155.438C-221.157 156.876 -223.253 155.542 -222.352 154.104L-221.056 151.946C-220.256 150.508 -218.058 151.842 -218.959 153.28L-220.256 155.438ZM-214.958 146.796C-215.759 148.13 -217.956 146.901 -217.055 145.463L-215.657 143.305C-214.857 141.971 -212.659 143.201 -213.662 144.743L-214.958 146.796ZM-209.459 138.457C-210.462 139.791 -212.355 138.248 -211.453 136.914L-210.056 134.861C-209.053 133.527 -207.058 135.07 -208.061 136.404L-209.459 138.457ZM-203.666 130.221C-204.669 131.555 -206.562 130.013 -205.57 128.679L-204.071 126.626C-203.068 125.292 -201.175 126.939 -202.178 128.168L-203.666 130.221ZM-197.861 122.508C-198.763 123.019 -199.856 122.195 -199.766 121.174C-199.868 120.56 -199.372 119.736 -198.662 119.632L-197.861 118.599C-196.858 117.37 -194.864 118.912 -195.957 120.246L-196.16 120.56L-195.765 120.664C-194.165 121.279 -195.168 123.645 -196.667 123.03L-197.861 122.508ZM-191.156 114.482C-192.362 115.723 -194.052 113.971 -192.959 112.73L-191.358 110.874C-190.164 109.541 -188.462 111.385 -189.555 112.521L-191.156 114.482ZM-184.461 106.966C-185.566 108.195 -187.459 106.455 -186.264 105.214L-184.562 103.358C-183.458 102.129 -181.666 103.869 -182.759 105.11L-184.461 106.966ZM-177.564 99.7626C-178.86 100.899 -180.46 98.9391 -179.265 97.9068L-177.564 96.1553C-176.268 94.9143 -174.667 96.8745 -175.76 98.0112L-177.564 99.7626ZM-170.362 92.7684C-171.568 93.9051 -173.258 92.0493 -172.064 90.9126L-170.159 89.1612C-168.964 88.0245 -167.263 89.9847 -168.559 91.1214L-170.362 92.7684ZM-162.969 86.1802C-164.073 87.2126 -165.764 85.3567 -164.467 84.2316L-162.563 82.5846C-161.165 81.4479 -159.768 83.6169 -161.064 84.5448L-162.969 86.1802ZM-155.169 79.8008C-156.567 80.8331 -157.965 78.7685 -156.668 77.8406L-154.764 76.2979C-153.366 75.2656 -151.969 77.3302 -153.265 78.2582L-155.169 79.8008ZM-147.269 73.8274C-148.464 74.7553 -150.064 72.795 -148.667 71.7743C-147.968 71.264 -147.269 70.742 -146.57 70.3361C-145.376 69.4081 -143.775 71.3684 -145.173 72.3891C-145.86 72.8994 -146.559 73.317 -147.269 73.8274ZM-139.064 68.1671C-140.462 69.095 -141.668 66.8332 -140.36 66.0097L-138.264 64.6758C-136.866 63.7479 -135.559 66.0097 -136.968 66.8332L-139.064 68.1671ZM-130.668 62.9243C-131.964 63.7479 -133.361 61.5905 -131.862 60.6625L-129.665 59.433C-128.369 58.6095 -126.971 60.7669 -128.47 61.6948L-130.668 62.9243ZM-121.967 57.9832C-123.567 58.8067 -124.571 56.4405 -123.173 55.7214L-120.975 54.4919C-119.476 53.7728 -118.372 56.1389 -119.769 56.8581L-121.967 57.9832ZM-113.165 53.4596C-114.562 54.1787 -115.768 51.9169 -114.27 51.0934C-113.469 50.7802 -112.771 50.3743 -111.97 50.0611C-110.573 49.342 -109.468 51.6038 -110.967 52.3229C-111.666 52.7289 -112.466 53.042 -113.165 53.4596ZM-104.171 49.2376C-105.772 49.8523 -106.572 47.4861 -105.174 46.8714L-102.875 45.8391C-101.275 45.2243 -100.475 47.6833 -101.974 48.2053L-104.171 49.2376ZM-95.0649 45.4215C-96.5638 46.0363 -97.4655 43.6701 -95.9665 43.0553L-93.5659 42.1274C-92.1684 41.5127 -91.1654 43.8788 -92.7657 44.4936L-95.0649 45.4215ZM-85.7669 41.9302C-87.2658 42.4406 -88.1674 40.0744 -86.5671 39.564C-85.7669 39.2509 -84.9667 38.9493 -84.1665 38.7405C-82.769 38.1258 -81.8674 40.492 -83.4677 41.1067C-84.2679 41.4083 -84.9667 41.6171 -85.7669 41.9302ZM-76.3674 38.8449C-78.0692 39.2509 -78.5651 36.7919 -77.0662 36.3743L-74.6656 35.6552C-73.0652 35.2492 -72.4679 37.7082 -74.0683 38.1258L-76.3674 38.8449ZM-66.8665 36.0612C-68.4669 36.4787 -69.0642 34.0081 -67.4639 33.5906L-65.0633 32.9758C-63.5643 32.5699 -62.8656 35.0288 -64.466 35.4464L-66.8665 36.0612ZM-57.2755 33.695C-58.7745 34.1009 -59.5746 31.642 -57.8728 31.12L-55.3708 30.6096C-53.669 30.2965 -53.3647 32.8714 -54.8749 33.0802L-57.2755 33.695ZM-47.6732 31.5376C-49.2736 31.8507 -49.6681 29.3802 -48.0677 29.067L-45.6671 28.661C-43.9653 28.3478 -43.5708 30.8184 -45.1712 31.1316L-47.6732 31.5376ZM-37.8793 29.7861C-39.4797 30.0993 -39.9756 27.6287 -38.2738 27.3155L-35.8732 26.9096C-34.2728 26.5964 -33.7769 29.1714 -35.4787 29.4845L-37.8793 29.7861ZM-370.849 129.398C-373.656 132.077 -372.844 131.764 -379.347 129.711C-385.05 127.96 -382.345 127.241 -387.451 130.326C-392.049 133.005 -399.555 135.882 -403.049 138.039C-401.753 141.02 -390.55 150.798 -387.845 154.811C-388.848 155.322 -389.648 155.635 -390.742 156.145C-392.443 157.073 -392.038 157.073 -394.044 155.832C-398.439 153.257 -412.538 144.917 -415.345 143.792C-419.041 145.439 -428.847 150.589 -432.239 150.38C-433.839 150.276 -436.443 149.766 -435.936 147.701C-434.639 142.656 -425.837 139.883 -420.135 137.308C-417.835 136.276 -418.433 136.485 -417.937 133.91C-417.34 131.033 -413.53 110.967 -412.64 109.935C-412.336 109.622 -409.146 108.183 -408.537 107.975C-408.233 109.831 -408.03 111.779 -407.94 113.739L-406.937 125.269C-406.937 127.02 -406.633 129.282 -406.34 130.929C-403.736 129.688 -401.144 128.458 -398.439 127.229C-385.039 120.641 -387.541 125.072 -384.34 117.66C-382.537 113.542 -382.638 111.072 -378.637 111.686C-379.347 119.933 -377.15 125.083 -370.849 129.398ZM-373.746 119.214C-375.245 119.724 -374.648 122.091 -372.946 121.685L-370.647 120.861C-369.249 120.444 -369.745 117.985 -371.447 118.391L-373.746 119.214ZM-113.266 174.576C-111.97 175.713 -110.573 173.648 -111.767 172.627L-112.771 171.804C-114.168 170.667 -115.566 172.732 -114.371 173.764L-113.266 174.576ZM-120.164 168.916C-118.868 169.948 -117.369 167.988 -118.563 166.955L-120.558 165.308C-121.854 164.276 -123.353 166.341 -122.057 167.361L-120.164 168.916ZM-127.963 162.745C-126.768 163.777 -125.168 161.817 -126.464 160.692L-128.459 159.149C-129.755 158.221 -131.355 160.182 -129.958 161.214L-127.963 162.745ZM-135.965 156.771C-134.567 157.804 -133.26 155.542 -134.567 154.718L-136.664 153.28C-138.061 152.248 -139.368 154.521 -138.061 155.333L-135.965 156.771ZM-144.17 151.111C-142.772 152.039 -141.465 149.882 -142.772 148.954L-144.868 147.62C-146.266 146.692 -147.663 148.757 -146.266 149.685L-144.17 151.111ZM-152.465 145.66C-151.169 146.483 -149.771 144.43 -151.27 143.502L-153.366 142.168C-154.662 141.345 -156.06 143.398 -154.662 144.326L-152.465 145.66ZM-161.064 140.51C-159.464 141.333 -158.46 139.071 -159.768 138.248L-161.965 137.018C-163.464 136.195 -164.569 138.457 -163.16 139.28L-161.064 140.51ZM-169.663 135.673C-168.164 136.392 -167.161 134.13 -168.559 133.411L-170.756 132.17C-172.255 131.451 -173.36 133.713 -171.861 134.432L-169.663 135.673ZM-178.567 131.149C-177.068 131.869 -175.963 129.607 -177.473 128.783L-179.671 127.751C-181.069 127.032 -182.275 129.189 -180.776 130.013L-178.567 131.149ZM-187.459 126.927C-185.859 127.542 -185.058 125.176 -186.557 124.561L-188.856 123.529C-190.355 122.914 -191.257 125.28 -189.758 125.895L-187.459 126.927ZM-205.863 119.516C-204.162 120.026 -203.666 117.555 -205.063 117.149L-207.464 116.326C-209.166 115.816 -209.661 118.286 -208.264 118.692L-205.863 119.516ZM-215.263 116.43C-213.764 116.941 -213.065 114.47 -214.564 113.96L-216.965 113.241C-218.565 112.823 -219.264 115.294 -217.663 115.711L-215.263 116.43ZM-224.764 113.763C-223.366 114.169 -222.465 111.814 -224.166 111.292L-226.567 110.677C-228.37 110.271 -228.663 112.835 -227.164 113.148L-224.764 113.763ZM-234.355 111.396C-232.754 111.71 -232.36 109.239 -233.859 108.926L-236.361 108.415C-237.961 108.102 -238.457 110.573 -236.868 110.886L-234.355 111.396ZM-244.058 109.541C-242.56 109.854 -241.962 107.383 -243.664 106.966C-244.464 106.861 -245.366 106.652 -246.166 106.56C-247.665 106.246 -248.262 108.717 -246.56 109.135C-245.76 109.227 -244.859 109.332 -244.058 109.541ZM-253.852 107.998C-252.151 108.207 -251.948 105.632 -253.548 105.527L-255.949 105.214C-257.65 105.005 -257.853 107.58 -256.253 107.685L-253.852 107.998ZM-263.658 106.966C-262.057 107.07 -261.753 104.599 -263.455 104.391L-265.957 104.182C-267.456 103.973 -267.85 106.548 -266.058 106.757L-263.658 106.966ZM-273.451 106.246C-271.75 106.351 -271.851 103.776 -273.35 103.776L-275.852 103.671C-277.554 103.567 -277.554 106.142 -275.953 106.142L-273.451 106.246ZM-283.358 106.038C-281.758 106.038 -281.656 103.463 -283.358 103.463C-284.158 103.463 -285.06 103.463 -285.86 103.463C-287.359 103.463 -287.562 106.038 -285.86 106.038C-284.947 106.038 -284.158 106.038 -283.358 106.038ZM-293.253 106.246C-291.45 106.038 -291.754 103.567 -293.355 103.671L-295.755 103.776C-297.457 103.88 -297.254 106.455 -295.654 106.351L-293.253 106.246ZM-303.047 106.757C-301.447 106.652 -301.65 104.077 -303.25 104.182L-305.752 104.391C-307.353 104.495 -307.15 107.07 -305.549 106.966L-303.047 106.757ZM-312.852 107.685C-311.353 107.58 -311.455 105.005 -313.157 105.214C-313.957 105.319 -314.859 105.423 -315.659 105.527C-317.158 105.632 -317.056 108.207 -315.354 107.998C-314.554 107.893 -313.754 107.789 -312.852 107.685ZM-322.646 109.019C-320.945 108.705 -321.542 106.246 -323.041 106.548L-325.554 106.861C-327.154 107.279 -326.659 109.749 -325.16 109.436L-322.646 109.019ZM-332.452 110.77C-330.851 110.457 -331.246 107.893 -332.846 108.195L-335.348 108.705C-336.847 109.019 -336.452 111.489 -334.852 111.176L-332.452 110.77ZM-342.054 112.73C-340.555 112.521 -340.949 109.958 -342.651 110.26L-345.052 110.874C-346.754 111.292 -345.953 113.751 -344.454 113.345L-342.054 112.73ZM-351.645 115.201C-350.044 114.69 -350.743 112.22 -352.344 112.73L-354.744 113.345C-356.345 113.751 -355.646 116.222 -354.045 115.816L-351.645 115.201ZM-361.247 117.88C-359.647 117.474 -360.244 114.899 -361.946 115.41L-364.245 116.129C-365.744 116.535 -365.248 119.005 -363.546 118.599L-361.247 117.88ZM86.5112 105.632C85.0122 106.142 85.6095 108.508 87.3113 108.102L89.6105 107.279C91.008 106.861 90.6135 104.402 88.8103 104.913L86.5112 105.632ZM346.991 161.098C348.287 162.13 349.786 160.066 348.49 159.138L347.487 158.21C346.089 157.073 344.692 159.242 345.886 160.17L346.991 161.098ZM340.093 155.438C341.401 156.47 342.888 154.405 341.694 153.385L339.688 151.842C338.391 150.81 336.881 152.77 338.189 153.802L340.093 155.438ZM332.294 149.163C333.489 150.195 335.089 148.235 333.793 147.202L331.798 145.66C330.502 144.627 328.902 146.588 330.299 147.713L332.294 149.163ZM324.292 143.294C325.69 144.221 326.997 142.064 325.69 141.136L323.695 139.698C322.196 138.77 320.889 140.939 322.297 141.855L324.292 143.294ZM316.099 137.529C317.496 138.457 318.792 136.299 317.496 135.371L315.4 134.038C314.003 133.11 312.695 135.279 314.002 136.195L316.099 137.529ZM307.793 132.077C309.1 133.005 310.497 130.941 309.1 129.92L306.902 128.586C305.708 127.762 304.208 129.816 305.707 130.848L307.793 132.077ZM299.295 126.927C300.794 127.751 301.797 125.489 300.501 124.77L298.303 123.436C296.804 122.717 295.699 124.979 297.108 125.698L299.295 126.927ZM290.605 122.091C292.104 122.81 293.209 120.652 291.698 119.829L289.501 118.692C288.002 117.869 286.999 120.235 288.396 120.954L290.605 122.091ZM281.702 117.567C283.201 118.286 284.305 116.024 282.806 115.305L280.609 114.169C279.211 113.449 278.016 115.711 279.504 116.43L281.702 117.567ZM272.798 113.345C274.399 113.96 275.199 111.594 273.7 110.979L271.502 109.947C269.902 109.332 269 111.802 270.499 112.313L272.798 113.345ZM263.602 109.541C265.101 110.155 266.092 107.789 264.503 107.07L262.204 106.246C260.705 105.632 259.804 107.998 261.302 108.613L263.602 109.541ZM254.405 106.038C256.107 106.548 256.603 103.985 255.205 103.567L252.805 102.744C251.103 102.233 250.607 104.704 252.004 105.214L254.405 106.038ZM245.006 102.848C246.606 103.358 247.203 100.899 245.704 100.482L243.304 99.7626C241.703 99.2523 241.005 101.723 242.605 102.129L245.006 102.848ZM235.505 100.18C236.902 100.586 237.804 98.2199 236.102 97.7096L233.701 97.0949C231.898 96.6889 231.594 99.2523 233.104 99.5654L235.505 100.18ZM225.902 97.9068C227.503 98.22 227.897 95.645 226.398 95.3318L223.896 94.8215C222.296 94.5083 221.89 96.9789 223.502 97.292L225.902 97.9068ZM216.21 95.9582C217.709 96.2713 218.317 93.8008 216.604 93.4876C215.804 93.2788 215.004 93.1744 214.102 92.9772C212.705 92.7685 212.006 95.239 213.708 95.5522C214.609 95.645 215.41 95.8538 216.21 95.9582ZM206.405 94.4155C208.107 94.6243 208.31 92.1537 206.709 91.9449L204.308 91.6317C202.607 91.423 202.404 93.9979 204.004 94.1023L206.405 94.4155ZM196.611 93.3832C198.211 93.592 198.504 91.017 196.814 90.8082L194.312 90.5994C192.813 90.495 192.407 92.9656 194.21 93.1744L196.611 93.3832ZM186.806 92.7684C188.508 92.7684 188.406 90.1935 186.907 90.1935L184.405 90.0891C182.703 90.0891 182.703 92.5597 184.304 92.6641L186.806 92.7684ZM176.91 92.4553C178.511 92.4553 178.612 89.9847 176.91 89.8803C176.11 89.8803 175.208 89.8803 174.408 89.8803C172.909 89.8803 172.706 92.4553 174.408 92.4553C175.31 92.4553 176.11 92.4553 176.91 92.4553ZM167.015 92.6641C168.818 92.5597 168.514 89.9847 166.914 90.0891L164.513 90.1935C162.811 90.2979 163.014 92.8728 164.614 92.7684L167.015 92.6641ZM157.21 93.1744C158.81 93.07 158.709 90.495 157.007 90.7038L154.505 90.9126C152.905 91.017 153.107 93.4876 154.708 93.3832L157.21 93.1744ZM147.416 94.2067C148.915 93.9979 148.813 91.423 147.112 91.6317C146.311 91.7361 145.41 91.8405 144.61 91.9449C143.111 92.0493 143.212 94.6243 144.914 94.4155C145.714 94.3111 146.514 94.2067 147.416 94.2067ZM137.611 95.4362C139.313 95.123 138.704 92.6641 137.216 92.9656L134.714 93.3716C133.114 93.6848 133.61 96.1553 135.109 95.8422L137.611 95.4362ZM127.806 97.1876C129.406 96.8745 129.012 94.4155 127.411 94.7171L124.92 95.123C123.421 95.4362 123.816 97.9996 125.416 97.698L127.806 97.1876ZM118.215 99.2523C119.714 98.9391 119.319 96.3757 117.617 96.7817L115.217 97.292C113.515 97.8024 114.315 100.18 115.814 99.7626L118.215 99.2523ZM108.612 101.618C110.213 101.108 109.514 98.7419 108.015 99.1479L105.513 99.7626C103.913 100.273 104.611 102.639 106.212 102.233L108.612 101.618ZM99.1113 104.286C100.61 103.88 100.013 101.41 98.4126 101.816L96.012 102.535C94.5131 102.941 95.009 105.516 96.7108 105.005L99.1113 104.286Z" fill="#CCCCCC"/>
</svg>
